<?xml version="1.0" encoding="utf-8"?>
<!-- Generator: Adobe Illustrator 24.2.3, SVG Export Plug-In . SVG Version: 6.00 Build 0)  -->
<svg version="1.1" id="Layer_1" xmlns:xodm="http://www.corel.com/coreldraw/odm/2003"
	 xmlns="http://www.w3.org/2000/svg" xmlns:xlink="http://www.w3.org/1999/xlink" x="0px" y="0px" viewBox="0 0 595.3 596.4"
	 style="enable-background:new 0 0 595.3 596.4;" xml:space="preserve">
<style type="text/css">
	.st0{fill:#EFA118;}
</style>
<g id="Layer_x0020_1">
	<g id="_2537828766000">
		<path class="st0" d="M283.2,2.9c-30.4,1.9-54.1,6.4-80.8,15.3c-20.6,6.8-45.7,18.7-63.3,30c-4.2,2.7-4.3,2.7,4.4,1.7
			c8.9-1,30.1-1.4,38.9-0.7c29.7,2.2,53.9,8.8,80.4,21.7c11.5,5.7,22.2,12,41,24.5c8.9,5.9,16.7,10.7,19.9,12.3
			c5,2.4,5.5,2.6,8.8,2.6c3.4,0,3.6,0,7.1-2.3c2-1.3,5.9-4.4,8.5-6.9c8.7-8.3,14-17.9,16.6-29.8c1.2-5.4,1.2-17.1,0-22.6
			c-3-14-10.5-28.2-21.7-40.7l-2-2.2l-5.3-0.7c-11.4-1.5-20.8-2.1-35-2.2C292.7,2.8,284.8,2.8,283.2,2.9L283.2,2.9z"/>
		<path class="st0" d="M354.4,8.4c0,0.1,1,1.8,2.2,3.6c9.6,14.3,16.1,29.6,18.2,42.9c0.8,5.2,0.7,14.8-0.2,20
			c-2.7,15-11.4,29.9-27.2,46.2c-2.8,3-5.1,5.6-5,5.8c0.1,0.3,39.8,37.2,43.8,40.7c1,0.8,1.1,0.8,13.9-9.4
			c50.6-40,69.2-52.8,95.8-66.1c4.8-2.4,8.7-4.6,8.7-4.9c0-0.6-5.9-6.5-11.4-11.1c-37.2-32.3-82-55.2-128.6-65.7
			C355.1,8.2,354.4,8,354.4,8.4L354.4,8.4L354.4,8.4z"/>
		<path class="st0" d="M144.9,55.2c-7.4,0.7-11.8,1.4-16.9,2.6c-5,1.2-5.2,1.3-9.7,4.7C57,108.5,15.7,177.3,4.2,252.3
			c-1.3,8.9-1.8,13-1.2,11.8c0.2-0.5,1.1-2.7,2-4.9c9.6-24.1,36.5-43.5,81.9-59.1c24.8-8.6,48.4-14.4,108.1-26.8
			c54.1-11.2,71.4-15.6,88.9-22.4c14.6-5.8,24.7-12.4,28.9-19.1c1.5-2.3,3.1-7,3.1-8.9c0-5.6-12.9-18.4-27.6-27.5
			c-28-17.2-63.5-30.9-96.1-36.9C174.8,55.2,157.4,54,144.9,55.2z"/>
		<path class="st0" d="M509,98.1c-27.5,17.5-54.2,36.2-79.3,55.6c-18.1,14-31.4,25.2-31.1,26.2c0.5,1.3,38,48,38.6,48
			c0.3,0,3.1-1.2,6.3-2.8c23.5-11.7,46.3-17.9,65.9-17.9c14.6,0,25.7,2.6,38.1,8.8c15.4,7.7,27.6,19.2,40,37.6c2.8,4.2,4.2,6,4,5.1
			c-0.1-0.8-0.6-3.5-1-6.2c-3.2-21.8-10-45.9-19.2-68.2c-3.3-8-12.6-26.6-17.2-34.3c-6.6-11.1-14.5-22.9-22.2-32.7
			c-7-9-17.9-21.4-18.8-21.4C512.9,95.8,511,96.8,509,98.1L509,98.1z"/>
		<path class="st0" d="M332.4,136.3c-0.6,1-10,8.1-14.8,11.2c-18.5,12-42.1,21.4-74.6,29.7c-14.6,3.7-27.1,6.5-60.5,13.1
			c-48.5,9.7-66.8,14.1-87.8,20.8c-45.1,14.5-73.9,34.6-90.3,63c-2.8,4.9-2.9,5.2-3.2,9.2c-0.5,6.5-0.4,20,0.1,29.3
			c2.8,50.1,17.5,96.9,43.9,139.5c8.5,13.7,24.8,35.4,26.2,34.8c0.3-0.1,4.7-5.3,9.6-11.4c85.2-104.9,177.9-199.5,281.1-286.9
			c7-5.9,12.8-11.1,12.8-11.3c0-0.3-41.6-41.6-42-41.7C332.7,135.8,332.5,136,332.4,136.3L332.4,136.3L332.4,136.3z"/>
		<path class="st0" d="M385.9,191.6c-53.6,39.9-96.8,77.5-150,130.8c-39.7,39.8-74,77-119,129.2c-10.8,12.6-16.1,18.8-33.9,39.9
			c-2.2,2.6-4.1,4.9-4.1,5.1c0,0.6,16,16.3,21.7,21.2c18.1,15.8,35.5,27.8,55.5,38.6c16.1,8.7,33.5,16.1,49.1,21.1
			c2.8,0.9,6,1.9,7.2,2.3c9.5,3.1,30.8,13.6,44.8,15.5c12.3,1.7,11.4,1.7,15.3-0.1c15.8-7.1,29.2-27.5,40.3-46.2
			c2.4-4.1,7-13,9.1-17.7c4.9-10.9,11.5-29.8,14.8-42.4c0.4-1.3,1.2-4.4,1.9-6.9c2.1-7.6,6.8-27.5,8.1-34.3
			c0.2-1.2,1.5-7.1,2.8-13.4s3.8-18.6,5.6-27.4c10.3-51.3,16-73.6,25.3-99.1c11.5-31.6,27.3-55.6,45.2-68.9c1.2-0.9,2.1-1.8,2-1.9
			c-0.3-0.8-38.6-47.4-39-47.3C388.7,189.8,387.3,190.6,385.9,191.6L385.9,191.6L385.9,191.6z"/>
		<path class="st0" d="M491.1,217.7c-0.9,0.1-3.8,0.6-6.6,1.1c-13.1,2.4-23.5,7.8-30,15.7c-2.8,3.4-3,4.9-1.2,9.6
			c2,5.1,3.8,8.1,17.3,29.1c10,15.6,16.3,25.9,22.1,35.9c32.4,56.8,44.3,108,36.1,155.7c-1.2,6.7-3.7,17.4-5,21.1
			c-0.4,1.1-0.6,2-0.4,1.9c0.4,0,8.3-9.9,12.7-15.8c31-42.1,49.7-89.2,55.8-140.1c1.9-16,2.5-35.5,1.7-49.3l-0.6-8.7l-1.9-3.7
			c-14.3-28.3-43.7-47.9-78.2-52.2C508.2,217.4,495.5,217.2,491.1,217.7L491.1,217.7L491.1,217.7z"/>
		<path class="st0" d="M429.7,253.7c-16.8,6-30,25.9-40.8,61.1c-5.7,18.9-10,36.8-19.2,81.1c-11.3,54.1-15.9,73.5-22.8,96.5
			c-9.9,33.1-21.6,58.7-35,76.4c-4.7,6.3-12.2,14.2-17.5,18.4l-2.5,9.2l14.1-0.3c44.2-0.8,84.9-17.5,125.1-37.6
			c27.3-13.7,50.8-30.4,73.6-52.2c4.1-3.9,4.8-4.8,6.9-9.2c6.8-13.9,9.9-29.3,9.9-49.6c0-18.2-2.1-34.6-7.2-54.8
			c-12.7-50.9-42.2-108.8-68-133.4c-5-4.8-5.1-4.9-8.3-5.7C433.8,252.6,432.6,252.6,429.7,253.7L429.7,253.7L429.7,253.7z"/>
	</g>
</g>
</svg>
